<svg width="166" height="13" viewBox="0 0 166 13" fill="none" xmlns="http://www.w3.org/2000/svg">
<path d="M8.388 7.068C8.304 7.236 7.872 8.172 7.872 9.132C7.872 9.876 8.172 10.608 9.744 10.356C8.232 8.568 11.652 2.58 12.972 1.572C12.816 1.416 12.648 1.344 12.48 1.332C11.064 1.152 8.4 4.08 7.488 5.136C7.308 3.468 8.268 1.152 8.268 1.152C7.812 0.719999 7.368 0.732 6.996 0.923999V0.912L6.984 0.923999C6.9 0.96 6.828 1.008 6.744 1.068C5.484 1.764 3.996 1.404 2.784 2.004C1.044 2.892 1.176 5.592 3.276 5.052C2.82 4.62 2.724 3.84 3.048 3.18C3.576 2.076 4.8 2.172 6.024 1.86C5.916 2.016 5.868 2.1 5.88 2.076L2.796 7.392C1.92 8.832 0.816 9.12 0.528 8.508C0.048 8.82 -0.048 9.348 0.132 9.792C0.312 10.236 0.756 10.56 1.344 10.524C1.776 10.5 2.88 10.236 4.68 6.78C5.172 5.844 6.012 4.272 6.852 2.772C6.6 3.384 6.384 4.152 6.336 5.052C6.228 6.9 7.728 6 7.752 6.048C7.752 6.048 8.328 5.148 9.876 3.588C10.104 3.348 10.308 3.168 10.476 3.012C9.492 4.452 8.616 6.42 8.388 7.068ZM15.5471 6.036C14.3951 8.712 12.0431 8.484 12.2471 6.948C13.2551 7.332 14.6711 6.324 14.5391 5.076C14.4791 4.608 14.1071 4.356 13.6151 4.284C13.0511 4.2 12.3071 4.572 11.7311 5.22C10.5191 6.564 10.3151 9.276 12.5471 9.276C13.2551 9.276 14.3111 8.964 15.1271 7.572C15.4751 6.876 15.7031 6.36 15.5471 6.036ZM13.0991 5.4C13.5191 4.932 13.8191 5.076 13.8431 5.34C13.8791 6.06 12.8471 6.768 12.3431 6.564C12.4751 6.228 12.7151 5.832 13.0991 5.4ZM18.6468 9.24C18.5268 8.532 18.6468 7.98 18.8388 7.524C19.3188 6.528 20.4108 4.464 21.0588 4.752C21.3468 4.932 21.0828 5.412 21.0228 5.52C20.4348 6.636 19.1748 8.328 20.4228 9.096C21.7908 9.912 23.9628 6.792 23.5788 6.048C23.3748 7.296 20.8188 8.928 21.6588 7.104L21.6708 7.092C22.0548 6.372 22.4508 5.7 22.2108 4.92C22.0548 4.416 21.5268 4.176 21.0588 4.176C20.5308 4.176 20.0388 4.584 19.6068 5.088C19.6068 5.052 19.5948 5.016 19.5828 4.98C19.4508 4.476 18.8988 4.236 18.4308 4.236C18.0468 4.236 17.6868 4.452 17.3508 4.776V4.764C17.3028 4.236 16.6788 4.08 16.6788 4.08L15.9228 5.412L15.1068 6.78C14.3868 8.016 14.2668 9.444 15.8268 9.264C15.8508 8.568 16.0548 7.98 16.3068 7.452L16.4988 7.068C16.7028 6.696 16.9068 6.36 17.0748 6.048C17.5548 5.28 18.0708 4.656 18.4308 4.812C18.7188 4.992 18.4548 5.472 18.3948 5.58C17.8068 6.696 16.5468 8.388 17.7948 9.156C18.0468 9.312 18.3468 9.324 18.6468 9.24ZM23.8781 9.204C23.7221 8.604 23.8781 8.136 24.8021 6.468C25.4981 5.424 26.8541 4.2 26.8541 5.304C26.8541 5.592 26.6501 6.156 26.3501 6.696C25.7261 6.864 25.5461 7.236 25.6181 7.644C25.4021 7.824 25.1861 7.932 24.9701 7.92C24.7541 7.92 24.6221 7.8 24.5861 7.512C23.6981 8.124 23.9021 9.252 25.1141 9.216C25.5221 9.192 25.9661 9.048 26.3981 8.712C26.4221 8.736 26.4581 8.76 26.4941 8.772C27.8621 9.588 29.7341 6.792 29.3501 6.048C29.1821 7.08 27.3821 8.268 27.1301 7.824C27.5861 7.02 27.9941 6.18 27.9941 5.352C27.9941 4.632 27.4781 4.104 26.7221 4.212C26.4341 4.248 26.1701 4.356 25.9181 4.488L26.9861 2.628C27.4301 1.86 27.4301 1.5 27.3941 1.224C27.3461 0.696 26.7221 0.539999 26.7221 0.539999L25.9661 1.872L23.1581 6.72C22.4381 7.956 22.3181 9.384 23.8781 9.204ZM33.6995 6.036C32.5475 8.712 30.1955 8.484 30.3995 6.948C31.4075 7.332 32.8235 6.324 32.6915 5.076C32.6315 4.608 32.2595 4.356 31.7675 4.284C31.2035 4.2 30.4595 4.572 29.8835 5.22C28.6715 6.564 28.4675 9.276 30.6995 9.276C31.4075 9.276 32.4635 8.964 33.2795 7.572C33.6275 6.876 33.8555 6.36 33.6995 6.036ZM31.2515 5.4C31.6715 4.932 31.9715 5.076 31.9955 5.34C32.0315 6.06 30.9995 6.768 30.4955 6.564C30.6275 6.228 30.8675 5.832 31.2515 5.4ZM34.9271 4.044C35.0591 3.528 34.3271 3.24 34.3271 3.24C33.8831 4.02 33.6791 4.452 33.6911 4.74V4.764C33.6911 5.304 34.1231 6.096 32.9231 7.284C32.9231 7.284 33.1511 7.692 33.1511 7.704C33.1511 7.716 33.5951 7.308 34.4231 5.388C34.7111 5.556 34.9631 5.556 35.1791 5.448C35.1551 5.472 35.1431 5.508 35.1311 5.52C34.5431 6.636 33.2831 8.328 34.5311 9.096C35.8991 9.912 38.2511 6.792 37.8671 6.048C37.6631 7.296 34.9271 8.928 35.7671 7.104L35.7791 7.092C36.1631 6.372 36.5591 5.568 36.2831 5.016C36.0911 4.632 35.6351 4.404 35.2271 4.812C34.7951 5.16 34.6271 4.596 34.9271 4.044ZM38.5833 9.468C38.7273 9.468 38.9073 9.444 39.0633 9.396C39.4713 9.276 39.7833 9.06 40.0113 8.76C41.0673 8.244 42.0033 6.6 41.7273 6.048C41.6313 6.648 40.9713 7.32 40.3833 7.668C40.3593 7.272 40.1913 6.936 39.9753 6.588C39.7353 6.216 39.7233 5.796 39.8313 5.388C40.0593 4.488 40.3833 5.352 40.2153 5.556C41.1033 5.268 40.7193 4.356 40.1673 4.248C39.0873 4.044 38.4153 5.436 38.9553 6.228C39.4113 6.9 39.3513 7.956 38.5713 7.92C38.0313 7.896 37.6353 7.452 37.8633 6.048C36.8793 7.056 36.9513 9.468 38.5833 9.468ZM42.0425 9.204C41.9465 8.856 41.9705 8.544 42.1865 8.016V8.028C42.1985 8.004 43.8065 4.368 44.6465 4.752C44.9345 4.932 44.6705 5.412 44.6105 5.52C44.0225 6.636 42.7625 8.328 44.0105 9.096C45.3785 9.912 47.5745 6.792 47.1905 6.048C46.9865 7.296 44.4065 8.928 45.2465 7.104L45.2585 7.092C45.6425 6.372 46.0385 5.7 45.7985 4.92C45.6425 4.416 45.1145 4.176 44.6465 4.176C44.5025 4.176 44.3585 4.212 44.2145 4.26L45.1505 2.628C45.5945 1.86 45.5945 1.5 45.5585 1.224C45.5105 0.696 44.8865 0.539999 44.8865 0.539999L44.1305 1.872L41.3225 6.72C40.6025 7.956 40.4825 9.384 42.0425 9.204ZM49.9394 6.048C49.7354 7.296 47.1674 8.916 48.0074 7.092L48.0194 7.08L48.6194 6.048C49.2554 4.956 49.0994 4.368 48.3314 4.02L47.5754 5.352L46.7834 6.72C46.6154 7.02 46.3394 7.572 46.3394 8.076C46.3394 8.448 46.4714 8.82 46.9034 9.084C48.2714 9.9 50.3234 6.792 49.9394 6.048ZM50.0594 2.568C50.1914 2.052 49.3634 1.668 49.3634 1.668C48.4754 3.228 48.5474 3.432 49.3874 3.744C49.6634 3.432 49.9034 3.156 50.0594 2.568ZM48.2296 12.684C48.0136 11.808 48.4456 11.196 50.9896 6.72H51.0016C51.6136 5.652 53.2096 4.104 53.2096 5.304C53.2096 5.592 53.0056 6.156 52.7056 6.696C52.0816 6.864 51.9016 7.236 51.9736 7.644C51.7576 7.824 51.5416 7.932 51.3256 7.92C51.1096 7.92 50.9776 7.8 50.9416 7.512C50.0536 8.124 50.2576 9.252 51.4696 9.216C51.8776 9.192 52.3216 9.048 52.7536 8.712C52.7776 8.736 52.8136 8.76 52.8496 8.772C54.2176 9.588 56.0896 6.792 55.7056 6.048C55.5376 7.08 53.7376 8.268 53.4856 7.824C53.9416 7.02 54.3496 6.18 54.3496 5.352C54.3496 4.632 53.8336 4.104 53.0776 4.212C52.5856 4.284 52.1416 4.536 51.7576 4.86C51.7576 4.8 51.7456 4.752 51.7456 4.704C51.6976 4.176 51.0736 4.02 51.0736 4.02L50.3176 5.352L47.5096 10.2C46.7896 11.436 46.6696 12.864 48.2296 12.684ZM56.4309 9.468C56.5749 9.468 56.7549 9.444 56.9109 9.396C57.3189 9.276 57.6309 9.06 57.8589 8.76C58.9149 8.244 59.8509 6.6 59.5749 6.048C59.4789 6.648 58.8189 7.32 58.2309 7.668C58.2069 7.272 58.0389 6.936 57.8229 6.588C57.5829 6.216 57.5709 5.796 57.6789 5.388C57.9069 4.488 58.2309 5.352 58.0629 5.556C58.9509 5.268 58.5669 4.356 58.0149 4.248C56.9349 4.044 56.2629 5.436 56.8029 6.228C57.2589 6.9 57.1989 7.956 56.4189 7.92C55.8789 7.896 55.4829 7.452 55.7109 6.048C54.7269 7.056 54.7989 9.468 56.4309 9.468ZM67.7078 6.036C66.2438 9.444 62.7998 8.148 65.2598 5.4C65.9438 4.632 66.3038 5.484 65.6798 5.844C66.3638 6.324 66.7478 5.436 66.6998 5.076C66.6398 4.608 66.2678 4.356 65.7758 4.284C65.2118 4.2 64.4678 4.572 63.8918 5.22C62.6798 6.564 62.4758 9.276 64.7078 9.276C65.4158 9.276 66.4718 8.964 67.2878 7.572C67.6358 6.876 67.8638 6.36 67.7078 6.036ZM68.7069 9.396C69.3189 9.372 69.8469 9.132 70.2909 8.784C70.4949 8.868 70.7469 8.88 71.0469 8.784C72.3189 8.4 73.2189 6.66 72.9069 6.06C72.7749 6.864 71.7549 7.572 71.2389 7.56C71.3469 7.356 71.4429 7.14 71.5269 6.924C72.1269 5.64 71.5869 4.272 70.2069 4.272C67.8189 4.272 65.4309 9.204 68.7069 9.396ZM70.6869 6.336C70.6629 6.408 70.6269 6.48 70.5909 6.552C70.0989 6.828 69.8349 7.248 69.7629 7.644C69.6909 7.728 69.6069 7.8 69.5229 7.884C68.5989 8.244 68.2389 7.548 68.8869 6.336C69.6309 4.932 71.7309 3.816 70.6869 6.336ZM75.9983 9.24C75.8783 8.532 75.9983 7.98 76.1903 7.524C76.6703 6.528 77.7623 4.464 78.4103 4.752C78.6983 4.932 78.4343 5.412 78.3743 5.52C77.7863 6.636 76.5263 8.328 77.7743 9.096C79.1423 9.912 81.3143 6.792 80.9303 6.048C80.7263 7.296 78.1703 8.928 79.0103 7.104L79.0223 7.092C79.4063 6.372 79.8023 5.7 79.5623 4.92C79.4063 4.416 78.8783 4.176 78.4103 4.176C77.8823 4.176 77.3903 4.584 76.9583 5.088C76.9583 5.052 76.9463 5.016 76.9343 4.98C76.8023 4.476 76.2503 4.236 75.7823 4.236C75.3983 4.236 75.0383 4.452 74.7023 4.776V4.764C74.6543 4.236 74.0303 4.08 74.0303 4.08L73.2743 5.412L72.4583 6.78C71.7383 8.016 71.6183 9.444 73.1783 9.264C73.2023 8.568 73.4063 7.98 73.6583 7.452L73.8503 7.068C74.0543 6.696 74.2583 6.36 74.4263 6.048C74.9063 5.28 75.4223 4.656 75.7823 4.812C76.0703 4.992 75.8063 5.472 75.7463 5.58C75.1583 6.696 73.8983 8.388 75.1463 9.156C75.3983 9.312 75.6983 9.324 75.9983 9.24ZM83.6777 6.048C83.4737 7.296 80.9057 8.916 81.7457 7.092L81.7577 7.08L82.3577 6.048C82.9937 4.956 82.8377 4.368 82.0697 4.02L81.3137 5.352L80.5217 6.72C80.3537 7.02 80.0777 7.572 80.0777 8.076C80.0777 8.448 80.2097 8.82 80.6417 9.084C82.0097 9.9 84.0617 6.792 83.6777 6.048ZM83.7977 2.568C83.9297 2.052 83.1017 1.668 83.1017 1.668C82.2137 3.228 82.2857 3.432 83.1257 3.744C83.4017 3.432 83.6417 3.156 83.7977 2.568ZM87.8239 4.92C87.6679 4.416 87.1399 4.176 86.6719 4.176C86.2639 4.176 85.8799 4.416 85.5319 4.764C85.5199 4.74 85.5199 4.728 85.5199 4.704C85.4719 4.176 84.8479 4.02 84.8479 4.02L84.0919 5.352L83.2759 6.72C82.5559 7.956 82.4359 9.384 83.9959 9.204C84.0079 8.76 84.1039 8.352 84.2239 7.98C84.4039 7.584 85.8799 4.392 86.6719 4.752C86.9599 4.932 86.6959 5.412 86.6359 5.52C86.0479 6.636 84.7879 8.328 86.0359 9.096C87.4039 9.912 89.5999 6.792 89.2159 6.048C89.0119 7.296 86.4319 8.928 87.2719 7.104L87.2839 7.092C87.6679 6.372 88.0639 5.7 87.8239 4.92ZM88.1468 10.632C87.6428 11.376 88.0148 12.492 89.1908 12.348C89.9228 12.252 90.8708 11.544 92.3708 8.868C93.7148 9.336 95.3948 6.756 95.0348 6.048C94.8788 7.008 93.3068 8.1 92.8868 7.896C93.2468 7.212 93.6188 6.432 94.0388 5.532C94.2428 5.124 94.3148 4.908 94.2908 4.704C94.2428 4.176 93.6188 4.02 93.6188 4.02L93.4748 4.26C93.2828 4.548 93.0908 4.884 92.8868 5.256C92.3468 3.108 89.0948 4.776 88.7228 7.416C88.5788 8.424 89.1188 9.252 90.1028 9.252C90.3548 9.252 90.5948 9.18 90.8228 9.084C90.0068 10.308 89.1188 11.112 88.1468 10.632ZM92.1428 6.708C91.6988 6.912 91.4828 7.224 91.4468 7.56C91.1828 7.776 90.8468 7.932 90.4628 7.932C89.9348 7.932 90.1148 7.272 90.2348 6.972C90.7268 5.592 92.9228 3.624 92.3348 6.348L92.1428 6.72V6.708ZM109.877 0.504C109.169 1.02 108.137 1.152 106.973 1.152H107.069C106.481 0.599999 105.917 0.767999 105.485 1.116C102.905 0.995999 100.145 0.827999 99.2088 3.096C98.4168 5.016 100.757 5.328 100.781 5.16C100.385 4.692 100.397 3.924 100.721 3.264C101.273 2.148 103.001 1.944 104.801 1.896C104.717 2.016 104.669 2.1 104.681 2.076L103.193 4.644C103.133 4.632 103.085 4.62 103.025 4.596C102.269 4.404 102.113 5.16 102.377 5.448C102.497 5.364 102.653 5.304 102.821 5.292L101.597 7.392C100.721 8.832 99.6168 9.12 99.3288 8.508C98.8488 8.82 98.7528 9.348 98.9328 9.792C99.1128 10.236 99.5568 10.56 100.145 10.524C100.577 10.5 101.681 10.236 103.481 6.78L104.153 5.508C104.345 5.58 104.501 5.64 104.585 5.652C105.761 5.94 105.605 4.788 105.497 4.644C105.125 4.86 104.933 4.956 104.477 4.908C104.921 4.08 105.425 3.18 105.917 2.316L106.217 1.872C108.257 1.848 110.033 1.776 109.877 0.504ZM109.66 6.036C108.508 8.712 106.156 8.484 106.36 6.948C107.368 7.332 108.784 6.324 108.652 5.076C108.592 4.608 108.22 4.356 107.728 4.284C107.164 4.2 106.42 4.572 105.844 5.22C104.632 6.564 104.428 9.276 106.66 9.276C107.368 9.276 108.424 8.964 109.24 7.572C109.588 6.876 109.816 6.36 109.66 6.036ZM107.212 5.4C107.632 4.932 107.932 5.076 107.956 5.34C107.992 6.06 106.96 6.768 106.456 6.564C106.588 6.228 106.828 5.832 107.212 5.4ZM109.964 9.204C109.808 8.604 109.964 8.136 110.888 6.468C111.584 5.424 112.94 4.2 112.94 5.304C112.94 5.592 112.736 6.156 112.436 6.696C111.812 6.864 111.632 7.236 111.704 7.644C111.488 7.824 111.272 7.932 111.056 7.92C110.84 7.92 110.708 7.8 110.672 7.512C109.784 8.124 109.988 9.252 111.2 9.216C111.608 9.192 112.052 9.048 112.484 8.712C112.508 8.736 112.544 8.76 112.58 8.772C113.948 9.588 115.82 6.792 115.436 6.048C115.268 7.08 113.468 8.268 113.216 7.824C113.672 7.02 114.08 6.18 114.08 5.352C114.08 4.632 113.564 4.104 112.808 4.212C112.52 4.248 112.256 4.356 112.004 4.488L113.072 2.628C113.516 1.86 113.516 1.5 113.48 1.224C113.432 0.696 112.808 0.539999 112.808 0.539999L112.052 1.872L109.244 6.72C108.524 7.956 108.404 9.384 109.964 9.204ZM116.665 4.044C116.797 3.528 116.065 3.24 116.065 3.24C115.621 4.02 115.417 4.452 115.429 4.74V4.764C115.429 5.304 115.861 6.096 114.661 7.284C114.661 7.284 114.889 7.692 114.889 7.704C114.889 7.716 115.333 7.308 116.161 5.388C116.449 5.556 116.701 5.556 116.917 5.448C116.893 5.472 116.881 5.508 116.869 5.52C116.281 6.636 115.021 8.328 116.269 9.096C117.637 9.912 119.989 6.792 119.605 6.048C119.401 7.296 116.665 8.928 117.505 7.104L117.517 7.092C117.901 6.372 118.297 5.568 118.021 5.016C117.829 4.632 117.373 4.404 116.965 4.812C116.533 5.16 116.365 4.596 116.665 4.044ZM125.098 6.048C124.894 7.296 122.326 8.916 123.166 7.092L123.178 7.08L123.778 6.048C124.414 4.956 124.258 4.368 123.49 4.02L123.43 4.128V4.104L123.286 4.368L122.83 5.172C121.258 7.776 119.686 8.712 120.43 7.092L120.442 7.08L121.042 6.048C121.678 4.956 121.522 4.368 120.754 4.02L119.998 5.352L119.206 6.72C119.038 7.02 118.762 7.572 118.762 8.076C118.762 8.448 118.894 8.82 119.326 9.084C119.902 9.432 120.742 8.808 121.51 7.872C121.498 7.944 121.498 8.016 121.498 8.076C121.498 8.448 121.63 8.82 122.062 9.084C123.43 9.9 125.482 6.792 125.098 6.048ZM131.122 6.048C130.918 7.296 128.35 8.916 129.19 7.092L129.202 7.08L129.802 6.048C130.438 4.956 130.282 4.368 129.514 4.02L128.782 5.304C128.278 3.072 124.978 4.74 124.606 7.404C124.462 8.412 125.002 9.24 125.986 9.24C126.598 9.24 127.138 8.88 127.57 8.448C127.642 8.688 127.798 8.916 128.086 9.084C129.454 9.9 131.506 6.792 131.122 6.048ZM128.014 6.636L127.966 6.72L127.858 6.912C127.618 7.296 127.114 7.92 126.346 7.92C125.818 7.92 125.998 7.26 126.118 6.96C126.61 5.592 128.77 3.648 128.23 6.264L128.026 6.612C128.026 6.612 128.014 6.624 128.014 6.636ZM132.345 4.044C132.477 3.528 131.745 3.24 131.745 3.24C131.301 4.02 131.097 4.452 131.109 4.74V4.764C131.109 5.304 131.541 6.096 130.341 7.284C130.341 7.284 130.569 7.692 130.569 7.704C130.569 7.716 131.013 7.308 131.841 5.388C132.129 5.556 132.381 5.556 132.597 5.448C132.573 5.472 132.561 5.508 132.549 5.52C131.961 6.636 130.701 8.328 131.949 9.096C133.317 9.912 135.669 6.792 135.285 6.048C135.081 7.296 132.345 8.928 133.185 7.104L133.197 7.092C133.581 6.372 133.977 5.568 133.701 5.016C133.509 4.632 133.053 4.404 132.645 4.812C132.213 5.16 132.045 4.596 132.345 4.044ZM133.649 10.632C133.145 11.376 133.517 12.492 134.693 12.348C135.425 12.252 136.373 11.544 137.873 8.868C139.217 9.336 140.897 6.756 140.537 6.048C140.381 7.008 138.809 8.1 138.389 7.896C138.749 7.212 139.121 6.432 139.541 5.532C139.745 5.124 139.817 4.908 139.793 4.704C139.745 4.176 139.121 4.02 139.121 4.02L138.977 4.26C138.701 4.668 138.425 5.196 138.125 5.784C136.685 7.92 135.425 8.58 136.109 7.092L136.121 7.08L136.721 6.048C137.357 4.956 137.201 4.368 136.433 4.02L135.677 5.352L134.885 6.72C134.717 7.02 134.441 7.572 134.441 8.076C134.441 8.448 134.573 8.82 135.005 9.084C135.485 9.372 136.157 8.976 136.805 8.292C135.869 9.924 134.825 11.208 133.649 10.632ZM145.721 9.288C146.297 8.544 150.689 6.444 150.689 3.912C150.689 2.844 150.017 1.872 148.553 1.812C146.969 1.764 144.545 4.848 147.377 4.86C146.009 3.048 149.945 1.368 149.633 3.84C149.309 6.42 143.945 7.32 144.377 9.948C145.649 9.804 147.965 11.184 148.589 9.72C148.709 9.444 148.877 8.688 148.541 8.412C148.529 8.4 148.061 9.42 145.721 9.288ZM152.705 10.104C152.753 10.104 152.825 10.104 152.873 10.092C156.089 9.624 158.873 2.004 154.649 1.932C151.013 1.872 148.949 10.08 152.705 10.104ZM155.285 2.58C157.049 2.868 155.033 8.676 153.041 8.676C151.253 8.676 152.597 2.58 155.285 2.58ZM156.994 9.288C157.57 8.544 161.962 6.444 161.962 3.912C161.962 2.844 161.29 1.872 159.826 1.812C158.242 1.764 155.818 4.848 158.65 4.86C157.282 3.048 161.218 1.368 160.906 3.84C160.582 6.42 155.218 7.32 155.65 9.948C156.922 9.804 159.238 11.184 159.862 9.72C159.982 9.444 160.15 8.688 159.814 8.412C159.802 8.4 159.334 9.42 156.994 9.288ZM164.333 2.076C162.821 2.436 163.325 3.432 163.481 3.252C163.745 2.952 164.321 2.748 164.777 2.508L164.549 2.976L161.693 7.752C160.961 8.976 160.853 10.416 162.413 10.236C162.185 9.324 162.653 8.712 165.521 3.66C165.965 2.892 165.965 2.532 165.929 2.256C165.881 1.728 165.257 1.572 165.257 1.572C165.257 1.572 165.257 1.584 165.245 1.608L165.257 1.572L165.185 1.716C165.089 1.812 164.861 1.956 164.333 2.076Z" fill="#E8B561"/>
</svg>
