<svg width="102" height="12" viewBox="0 0 102 12" fill="none" xmlns="http://www.w3.org/2000/svg">
<path d="M86.4258 12H98.7366V9.76667H89.6805V7.1H95.4733V4.875H89.6805V2.23333H98.7366V0H86.4258V12Z" fill="black"/>
<path d="M38.9258 0H30.9229C29.4553 0 28.3848 1.03333 28.3848 2.45V9.55C28.3848 10.9667 29.4553 12 30.9229 12H38.9258C40.3934 12 41.4639 10.9667 41.4639 9.55V2.45C41.4553 1.03333 40.3934 0 38.9258 0ZM37.1819 9.76667H32.6582L30.3963 6L32.6582 2.23333H37.1819L39.4438 6L37.1819 9.76667Z" fill="black"/>
<path d="M85.0109 5.15833V2.45C85.0109 1.03333 83.9404 0 82.4728 0H72.1562V12H75.4109V7.60833H79.2095L81.8512 12H85.3562L82.7145 7.6C84.0613 7.49167 85.0109 6.5 85.0109 5.15833ZM81.7562 4.63333C81.7562 5.04167 81.4109 5.375 80.9879 5.375H75.4195V2.23333H80.9879C81.4109 2.23333 81.7562 2.56667 81.7562 2.975V4.63333Z" fill="black"/>
<path d="M68.1152 0H60.1123C58.6447 0 57.5742 1.03333 57.5742 2.45V9.55C57.5742 10.9667 58.6447 12 60.1123 12H68.1152C69.5828 12 70.6533 10.9667 70.6533 9.55V2.45C70.6533 1.03333 69.5828 0 68.1152 0ZM66.3799 9.76667H61.8562L59.5943 6L61.8562 2.23333H66.3799L68.6418 6L66.3799 9.76667Z" fill="black"/>
<path d="M53.5683 0H45.5654C44.0978 0 43.0273 1.03333 43.0273 2.45V9.55C43.0273 10.9667 44.0978 12 45.5654 12H53.5683C55.0359 12 56.1064 10.9667 56.1064 9.55V7.60833H53.128L51.8331 9.76667H47.3093L45.0388 6L47.3007 2.23333H51.8244L53.1194 4.39167H56.0978V2.45C56.1064 1.03333 55.0359 0 53.5683 0Z" fill="black"/>
<path d="M101.361 1.05V0.825C101.361 0.708334 101.275 0.625 101.154 0.625H100.299V1.625H100.567V1.25H100.886L101.102 1.61667H101.396L101.18 1.25C101.284 1.24167 101.361 1.15834 101.361 1.05ZM101.085 0.999998C101.085 1.03334 101.059 1.05834 101.025 1.05834H100.558V0.8H101.025C101.059 0.8 101.085 0.825 101.085 0.858334V0.999998Z" fill="black"/>
<path d="M100.817 0C100.17 0 99.6348 0.491667 99.6348 1.11667C99.6348 1.74167 100.17 2.23333 100.817 2.23333C101.465 2.23333 102 1.74167 102 1.11667C102 0.491667 101.465 0 100.817 0ZM100.817 2.05C100.273 2.05 99.8248 1.63333 99.8248 1.11667C99.8248 0.6 100.265 0.183333 100.817 0.183333C101.361 0.183333 101.81 0.6 101.81 1.11667C101.801 1.625 101.361 2.05 100.817 2.05Z" fill="black"/>
<path d="M27.0051 5.15833V2.45C27.0051 1.03333 25.9346 0 24.4669 0H14.1504V12H17.4051V7.60833H21.2036L23.8454 12H27.3504L24.7087 7.6C26.0468 7.49167 27.0051 6.5 27.0051 5.15833ZM23.7504 4.63333C23.7504 5.04167 23.4051 5.375 22.982 5.375H17.4137V2.23333H22.982C23.4051 2.23333 23.7504 2.56667 23.7504 2.975V4.63333Z" fill="black"/>
<path d="M10.3166 0H0V12H3.25468V7.60833H10.3166C11.7842 7.60833 12.8547 6.575 12.8547 5.15833V2.45C12.8547 1.03333 11.7842 0 10.3166 0ZM9.6 4.63333C9.6 5.04167 9.25468 5.375 8.83166 5.375H3.25468V2.23333H8.82302C9.24605 2.23333 9.59137 2.56667 9.59137 2.975V4.63333H9.6Z" fill="black"/>
<path d="M48.2827 4L47 6.0388L48.2827 8.07761H50.848L52.1396 6.0388L50.848 4H48.2827Z" fill="#FF5200"/>
</svg>
