<svg width="28" height="29" viewBox="0 0 28 29" fill="none" xmlns="http://www.w3.org/2000/svg">
<g clip-path="url(#clip0)">
<path d="M91.8712 28.2166H117.85V22.9688H98.7394V16.7029H110.964V11.4747H98.7394V5.26754H117.85V0.0198059H91.8712V28.2166Z" fill="white"/>
<path d="M-8.36465 0.0198059H-25.2528C-28.3499 0.0198059 -30.6089 2.44786 -30.6089 5.77665V22.4597C-30.6089 25.7885 -28.3499 28.2166 -25.2528 28.2166H-8.36465C-5.26758 28.2166 -3.00854 25.7885 -3.00854 22.4597V5.77665C-3.02676 2.44786 -5.26758 0.0198059 -8.36465 0.0198059ZM-12.0447 22.9688H-21.591L-26.3641 14.1182L-21.591 5.26754H-12.0447L-7.27157 14.1182L-12.0447 22.9688Z" fill="white"/>
<path d="M88.8835 12.1405V5.77665C88.8835 2.44786 86.6244 0.0198059 83.5273 0.0198059H61.7568V28.2166H68.625V17.8973H76.6409L82.2156 28.2166H89.6122L84.0374 17.8778C86.8795 17.6232 88.8835 15.2931 88.8835 12.1405ZM82.0152 10.9069C82.0152 11.8664 81.2865 12.6496 80.3938 12.6496H68.6432V5.26754H80.3938C81.2865 5.26754 82.0152 6.05078 82.0152 7.01025V10.9069Z" fill="white"/>
<path d="M53.2308 0.0198059H36.3426C33.2456 0.0198059 30.9865 2.44786 30.9865 5.77665V22.4597C30.9865 25.7885 33.2456 28.2166 36.3426 28.2166H53.2308C56.3278 28.2166 58.5869 25.7885 58.5869 22.4597V5.77665C58.5869 2.44786 56.3278 0.0198059 53.2308 0.0198059ZM49.5689 22.9688H40.0227L35.2495 14.1182L40.0227 5.26754H49.5689L54.3421 14.1182L49.5689 22.9688Z" fill="white"/>
<path d="M22.5334 0.0198059H5.64523C2.54816 0.0198059 0.289124 2.44786 0.289124 5.77665V22.4597C0.289124 25.7885 2.54816 28.2166 5.64523 28.2166H22.5334C25.6304 28.2166 27.8895 25.7885 27.8895 22.4597V17.8973H21.6042L18.8715 22.9688H9.32526L4.53393 14.1182L9.30706 5.26754H18.8533L21.586 10.339H27.8712V5.77665C27.8895 2.44786 25.6304 0.0198059 22.5334 0.0198059Z" fill="white"/>
<path d="M123.389 2.48705V1.95836C123.389 1.68423 123.206 1.48842 122.951 1.48842H121.148V3.83815H121.713V2.957H122.387L122.842 3.81857H123.461L123.006 2.957C123.225 2.93742 123.389 2.74161 123.389 2.48705ZM122.806 2.36957C122.806 2.44789 122.751 2.50663 122.678 2.50663H121.694V1.89962H122.678C122.751 1.89962 122.806 1.95836 122.806 2.03669V2.36957Z" fill="white"/>
<path d="M122.241 0.0198059C120.874 0.0198059 119.745 1.17509 119.745 2.64367C119.745 4.11225 120.874 5.26754 122.241 5.26754C123.607 5.26754 124.736 4.11225 124.736 2.64367C124.736 1.17509 123.607 0.0198059 122.241 0.0198059ZM122.241 4.83675C121.093 4.83675 120.146 3.8577 120.146 2.64367C120.146 1.42964 121.075 0.45059 122.241 0.45059C123.388 0.45059 124.336 1.42964 124.336 2.64367C124.317 3.83812 123.388 4.83675 122.241 4.83675Z" fill="white"/>
<path d="M-33.5236 12.1405V5.77665C-33.5236 2.44786 -35.7827 0.0198059 -38.8797 0.0198059H-60.6503V28.2166H-53.7821V17.8973H-45.7661L-40.1914 28.2166H-32.7949L-38.3696 17.8778C-35.5458 17.6232 -33.5236 15.2931 -33.5236 12.1405ZM-40.3918 10.9069C-40.3918 11.8664 -41.1205 12.6496 -42.0132 12.6496H-53.7639V5.26754H-42.0132C-41.1205 5.26754 -40.3918 6.05078 -40.3918 7.01025V10.9069Z" fill="white"/>
<path d="M-68.7392 0.0198059H-90.5098V28.2166H-83.6416V17.8973H-68.7392C-65.6421 17.8973 -63.3831 15.4693 -63.3831 12.1405V5.77665C-63.3831 2.44786 -65.6421 0.0198059 -68.7392 0.0198059ZM-70.2513 10.9069C-70.2513 11.8664 -70.98 12.6496 -71.8727 12.6496H-83.6416V5.26754H-71.8909C-70.9982 5.26754 -70.2695 6.05078 -70.2695 7.01025V10.9069H-70.2513Z" fill="white"/>
<path d="M11.4893 9.32108L8.90234 14.1184L11.4893 18.9158H16.6632L19.2684 14.1184L16.6632 9.32108H11.4893Z" fill="#FF5200"/>
</g>
<defs>
<clipPath id="clip0">
<rect width="28" height="28.2364" fill="white"/>
</clipPath>
</defs>
</svg>
