<svg width="22" height="22" viewBox="0 0 22 22" fill="none" xmlns="http://www.w3.org/2000/svg">
<path fill-rule="evenodd" clip-rule="evenodd" d="M3.38462 9.30769C3.38462 6.03646 6.03646 3.38462 9.30769 3.38462C12.5789 3.38462 15.2308 6.03646 15.2308 9.30769C15.2308 12.5789 12.5789 15.2308 9.30769 15.2308C6.03646 15.2308 3.38462 12.5789 3.38462 9.30769ZM20.8035 20.8035C21.4643 20.1427 21.4643 19.0714 20.8035 18.4106L16.9739 14.5809C18.0079 13.0798 18.6154 11.2657 18.6154 9.30769C18.6154 4.16815 14.4489 0 9.30769 0C4.16646 0 0 4.16815 0 9.30769C0 14.4472 4.16646 18.6154 9.30769 18.6154C11.2657 18.6154 13.0816 18.0078 14.581 16.9738L18.4106 20.8035C19.0714 21.4643 20.1428 21.4643 20.8035 20.8035V20.8035Z" fill="#FF5100"/>
</svg>
