<svg width="24" height="24" viewBox="0 0 24 24" fill="none" xmlns="http://www.w3.org/2000/svg">
<rect width="24" height="24" fill="white"/>
<path d="M3.96257 11.4373H19.9435C20.7913 11.4373 21.4541 12.1687 21.3707 13.0124L21.1253 15.498C21.0526 16.2334 20.7542 16.9284 20.271 17.4875L17.9817 20.1366C16.902 21.3859 15.3324 22.104 13.6812 22.104H10.2248C8.57361 22.104 7.00403 21.3859 5.92437 20.1366L3.63504 17.4875C3.15183 16.9284 2.85344 16.2334 2.7808 15.498L2.53532 13.0124C2.45199 12.1688 3.11477 11.4373 3.96257 11.4373Z" fill="white" stroke="black" stroke-width="0.688173"/>
<mask id="mask0" mask-type="alpha" maskUnits="userSpaceOnUse" x="3" y="2" width="18" height="17">
<path d="M19.7395 10.5324V12.6352C19.7395 15.6194 17.3203 18.0386 14.336 18.0386H9.56978C6.58555 18.0386 4.16635 15.6194 4.16635 12.6352V10.5324C4.16635 6.23204 7.65251 2.74588 11.9529 2.74588C16.2533 2.74588 19.7395 6.23204 19.7395 10.5324Z" fill="white" stroke="black" stroke-width="0.688173"/>
</mask>
<g mask="url(#mask0)">
<path d="M19.7395 10.5324V12.6352C19.7395 15.6194 17.3203 18.0386 14.336 18.0386H9.56978C6.58555 18.0386 4.16635 15.6194 4.16635 12.6352V10.5324C4.16635 6.23204 7.65251 2.74588 11.9529 2.74588C16.2533 2.74588 19.7395 6.23204 19.7395 10.5324Z" fill="white" stroke="black" stroke-width="0.688173"/>
<mask id="path-4-inside-1" fill="white">
<path fill-rule="evenodd" clip-rule="evenodd" d="M3.6814 5.3454C5.92661 5.3454 7.74672 7.16551 7.74672 9.41072V18.1021C5.5015 18.1021 3.6814 16.282 3.6814 14.0368V5.3454ZM20.2237 5.3454C17.9785 5.3454 16.1583 7.16551 16.1583 9.41072V18.1021C18.4036 18.1021 20.2237 16.282 20.2237 14.0368V5.3454Z"/>
</mask>
<path fill-rule="evenodd" clip-rule="evenodd" d="M3.6814 5.3454C5.92661 5.3454 7.74672 7.16551 7.74672 9.41072V18.1021C5.5015 18.1021 3.6814 16.282 3.6814 14.0368V5.3454ZM20.2237 5.3454C17.9785 5.3454 16.1583 7.16551 16.1583 9.41072V18.1021C18.4036 18.1021 20.2237 16.282 20.2237 14.0368V5.3454Z" fill="white"/>
<path d="M3.6814 5.3454V4.65722H2.99322V5.3454H3.6814ZM7.74672 18.1021V18.7903H8.43489V18.1021H7.74672ZM20.2237 5.3454H20.9118V4.65722H20.2237V5.3454ZM16.1583 18.1021H15.4702V18.7903H16.1583V18.1021ZM8.43489 9.41072C8.43489 6.78544 6.30668 4.65722 3.6814 4.65722V6.03357C5.54654 6.03357 7.05854 7.54557 7.05854 9.41072H8.43489ZM8.43489 18.1021V9.41072H7.05854V18.1021H8.43489ZM2.99322 14.0368C2.99322 16.662 5.12143 18.7903 7.74672 18.7903V17.4139C5.88157 17.4139 4.36957 15.9019 4.36957 14.0368H2.99322ZM2.99322 5.3454V14.0368H4.36957V5.3454H2.99322ZM16.8465 9.41072C16.8465 7.54557 18.3585 6.03357 20.2237 6.03357V4.65722C17.5984 4.65722 15.4702 6.78544 15.4702 9.41072H16.8465ZM16.8465 18.1021V9.41072H15.4702V18.1021H16.8465ZM19.5355 14.0368C19.5355 15.9019 18.0235 17.4139 16.1583 17.4139V18.7903C18.7836 18.7903 20.9118 16.662 20.9118 14.0368H19.5355ZM19.5355 5.3454V14.0368H20.9118V5.3454H19.5355Z" fill="black" mask="url(#path-4-inside-1)"/>
<path d="M19.7395 10.5324V12.6352C19.7395 15.6194 17.3203 18.0386 14.336 18.0386H9.56978C6.58555 18.0386 4.16635 15.6194 4.16635 12.6352V10.5324C4.16635 6.23204 7.65251 2.74588 11.9529 2.74588C16.2533 2.74588 19.7395 6.23204 19.7395 10.5324Z" stroke="black" stroke-width="0.688173"/>
</g>
<rect x="10.3343" y="1.34409" width="3.23696" height="15.0124" rx="1.61848" fill="white" stroke="black" stroke-width="0.688173"/>
<rect x="9.49326" y="15.0821" width="4.91917" height="4.07806" rx="1.05775" fill="white" stroke="black" stroke-width="0.688173"/>
</svg>
